<?xml version="1.0" encoding="UTF-8"?>
<svg width="576px" height="448px" viewBox="0 0 576 448" version="1.1" xmlns="http://www.w3.org/2000/svg" xmlns:xlink="http://www.w3.org/1999/xlink">
    <!-- Generator: Sketch 52.6 (67491) - http://www.bohemiancoding.com/sketch -->
    <title>icon</title>
    <desc>Created with Sketch.</desc>
    <g id="Page-1" stroke="none" stroke-width="1" fill="none" fill-rule="evenodd">
        <g id="images-light" fill="#FFFFFF" fill-rule="nonzero">
            <path d="M464,416 L96,416 C60.65,416 32,387.35 32,352 L32,80 C32,71.2 24.84,64 16,64 C7.16,64 0,71.2 0,80 L0,352 C0,405.02 42.98,448 96,448 L464,448 C472.836,448 480,440.836 480,432 C480,423.164 472.8,416 464,416 Z M224,120 C237.26,120 248,109.25 248,96 C248,82.75 237.26,72 224,72 C210.75,72 200,82.75 200,96 C200,109.25 210.8,120 224,120 Z M410.6,107.9 C399.32,92.09 372.1,91.96 361.5,107.8687 L317.47,169.2987 L310.501,160.3577 C299.061,145.8977 273.531,145.7977 262.101,160.389 L198.2,240.8 C191,249.9 190,262.3 195.5,272.3 C200.8,281.1 211.1,288 222.4,288 L481.6,288 C492.6,288 502.77,282.195 508.14,272.91 C508.14,272.8787 508.1087,272.9413 508.14,272.91 C513.796,263.027 513.218,251.07 506.562,241.76 L410.6,107.9 Z M226.2,255.9 L284.45,180.29 L304.54,205.95 C308.888,211.495 322.14,216.6 330.13,205.4168 L384.57,126.6668 L477.25,255.8668 L226.2,255.8668 L226.2,255.9 Z M512,0 L160,0 C124.65,0 96,28.65 96,64 L96,288 C96,323.35 124.65,352 160,352 L512,352 C547.35,352 576,323.35 576,288 L576,64 C576,28.65 547.3,0 512,0 Z M544,288 C544,305.64 529.64,320 512,320 L160,320 C142.36,320 128,305.64 128,288 L128,64 C128,46.36 142.36,32 160,32 L512,32 C529.64,32 544,46.36 544,64 L544,288 Z" id="icon"></path>
        </g>
    </g>
</svg>