<?xml version="1.0" encoding="UTF-8"?>
<svg width="512px" height="512px" viewBox="0 0 512 512" version="1.1" xmlns="http://www.w3.org/2000/svg" xmlns:xlink="http://www.w3.org/1999/xlink">
    <!-- Generator: Sketch 52.6 (67491) - http://www.bohemiancoding.com/sketch -->
    <title>icon</title>
    <desc>Created with Sketch.</desc>
    <g id="Page-1" stroke="none" stroke-width="1" fill="none" fill-rule="evenodd">
        <g id="file-certificate-light" fill="#FFFFFF" fill-rule="nonzero">
            <path d="M243.1,339.2 C253.45,328.62 257.51,313.07 253.7,298.68 C251,285.2 250.1,290.8 254.6,277.3 C258.444,262.74 254.3187,247.16 243.88,236.72 C234,226.8 234.1,228.4 231.4,214.9 C227.7,200.4 216.5,188.1 202.1,185.1 C188.7,181.4 190.5,182.6 180.7,172.4 C170.17,161.71 154.85,157.51 140.35,161.37 C126.99,165.024 129.06,165.016 115.72,161.37 C101.2,157.5 85.87,161.8 75.33,172.4 C65.46,182.6 67.26,181.4 53.86,185.1 C39.51,188.991 28.26,200.43 24.57,214.96 C21.01,228.4 21.97,226.8 12.14,236.7 C1.7,247.14 -2.43,262.72 1.42,277.28 C5.037,290.8 4.982,285.2 1.447,298.7 C-2.367,313.09 1.697,328.64 12.047,339.22 C22.087,349.31 20.951,347.4 24.517,361.25 C28.392,375.67 39.677,387.05 53.957,390.92 C59.121,392.344 61.793,393.108 63.987,394.035 L63.987,496 C63.987,501.547 66.864,506.69 71.583,509.61 C76.272,512.485 82.183,512.766 87.153,510.3131 L128,489.9 L168.85,510.32 C171.1,511.4 173.6,512 176,512 C178.938,512 181.844,511.2031 184.406,509.609 C189.1,506.7 192,501.5 192,496 L192,394.9 C194.197,393.9703 196.869,393.209 202.03,391.785 C216.31,387.908 227.6,376.535 231.47,362.115 C235.1,347.4 233.9,349.3 243.1,339.2 Z M160,470.1 L135.15,457.68 C130.648,455.43 125.336,455.43 120.84,457.68 L95.99,470.1 L95.99,414.78 C102.412,416.214 109.15,416.329 115.68,414.5495 C129.37,410.8675 126.71,410.8935 140.31,414.5495 C146.847,416.3285 153.58,416.2135 160,414.78 L160,470.1 Z M222.4,302.1 C224.728,310.918 225.451,312.44 218.462,319.51 C206.962,331.12 205.522,333.7 200.582,352.97 C199.025,358.904 194.383,359.851 190.272,360.986 C174.452,365.33 171.922,366.83 160.202,378.686 C154.815,384.143 153.487,384.985 145.512,382.78 C129.632,378.43 126.532,378.409 110.572,382.78 C102.597,384.985 101.271,384.143 95.882,378.686 C84.162,366.826 81.632,365.326 65.812,360.986 C61.695,359.851 57.054,358.904 55.502,352.97 C50.563,333.7 49.125,331.12 37.622,319.51 C30.59,312.5 31.31,310.9 33.64,302.1 C37.08,289.3 37.08,286.4 33.61,273.8 C31.38,265.5 30.52,263.6 37.17,256.9 C48.92,244.99 50.39,242.45 54.61,226.48 C56.749,218.425 57.307,217.248 65.74,214.95 C81.65,210.606 84.18,209.106 95.84,197.2 C101.186,191.786 102.565,190.962 110.56,193.153 C126.63,197.546 129.37,197.546 145.44,193.153 C153.44,190.962 154.817,191.786 160.16,197.2 C171.82,209.11 174.35,210.61 190.26,214.95 C198.7,217.3 199.3,218.5 201.4,226.5 C205.6,242.5 207.1,245 218.8,256.9 C225.454,263.597 224.587,265.48 222.362,273.71 C218.9,286.4 218.9,289.3 222.4,302.1 Z M493.3,125.3 L386.8,18.8 C374.7,6.742 358.5,0 341.5,0 L191.1,-0.0001 C155.75,-0.0001 127.1,28.6499 127.1,63.9999 L128,112 C128,120.8 135.2,128 144,128 C152.8,128 160,120.8 160,112 L160,64 C160,46.33 174.33,32 192,32 L320,32 L320,144 C320,170.5 341.5,192 368,192 L480,192 L480,448 C480,465.67 465.67,480 448,480 L240,480 C231.2,480 224,487.2 224,496 C224,504.8 231.2,512 240,512 L447.1,511.9999 C482.45,511.9999 511.1,483.3499 511.1,447.9999 L511.1,170.4999 C512,153.5 505.3,137.3 493.3,125.3 Z M368,160 C359.2,160 352,152.8 352,144 L352,34.08 C356.477,35.646 360.666,37.926 364.12,41.379 L470.62,147.879 C474.1,151.3 476.4,155.5 477.9,160 L368,160 Z" id="icon"></path>
        </g>
    </g>
</svg>